<svg width="20" height="20" viewBox="0 0 22 22" fill="none" xmlns="http://www.w3.org/2000/svg">
<path d="M21.0577 19.4047L21.0576 19.4047L16.5013 14.8493C17.8082 13.1417 18.4523 11.0129 18.3053 8.85924C18.1499 6.58365 17.1232 4.45555 15.4388 2.91766C13.7544 1.37976 11.5419 0.550467 9.26157 0.60229C6.98127 0.654114 4.80873 1.58306 3.1959 3.1959C1.58306 4.80873 0.654114 6.98127 0.60229 9.26157C0.550467 11.5419 1.37976 13.7544 2.91766 15.4388C4.45555 17.1232 6.58365 18.1499 8.85924 18.3053C11.0129 18.4523 13.1417 17.8082 14.8493 16.5013L19.4047 21.0576L19.4047 21.0577C19.5132 21.1662 19.6421 21.2523 19.7839 21.311C19.9257 21.3698 20.0777 21.4 20.2312 21.4C20.3847 21.4 20.5367 21.3698 20.6785 21.311C20.8203 21.2523 20.9491 21.1662 21.0577 21.0577C21.1662 20.9491 21.2523 20.8203 21.311 20.6785C21.3698 20.5367 21.4 20.3847 21.4 20.2312C21.4 20.0777 21.3698 19.9257 21.311 19.7839C21.2523 19.6421 21.1662 19.5132 21.0577 19.4047ZM2.95803 9.47338C2.95807 8.1848 3.3402 6.92516 4.0561 5.85374C4.77204 4.78226 5.78963 3.94714 6.9802 3.45399C8.17077 2.96085 9.48083 2.83182 10.7447 3.08322C12.0086 3.33463 13.1696 3.95517 14.0808 4.86639C14.992 5.77761 15.6126 6.93858 15.864 8.20248C16.1154 9.46638 15.9864 10.7764 15.4932 11.967C15.0001 13.1576 14.1649 14.1752 13.0935 14.8911C12.022 15.6071 10.7623 15.9892 9.47361 15.9892C7.7462 15.9872 6.09011 15.3 4.86864 14.0786C3.64712 12.857 2.96 11.2009 2.95803 9.47338Z" fill="#333333" stroke="#333333" stroke-width="0.8"/>
</svg>
