<svg width="20" height="20" viewBox="0 0 20 20" fill="none" xmlns="http://www.w3.org/2000/svg">
<circle cx="10" cy="10" r="9.5" stroke="black"/>
<path d="M10 10C10 10.1492 9.94074 10.2923 9.83525 10.3977C9.72976 10.5032 9.58668 10.5625 9.4375 10.5625H6.25C6.10082 10.5625 5.95774 10.5032 5.85225 10.3977C5.74676 10.2923 5.6875 10.1492 5.6875 10C5.6875 9.85082 5.74676 9.70774 5.85225 9.60225C5.95774 9.49676 6.10082 9.4375 6.25 9.4375H9.4375C9.58668 9.4375 9.72976 9.49676 9.83525 9.60225C9.94074 9.70774 10 9.85082 10 10ZM6.25 7.5625H12.4375C12.5867 7.5625 12.7298 7.50324 12.8352 7.39775C12.9407 7.29226 13 7.14918 13 7C13 6.85082 12.9407 6.70774 12.8352 6.60225C12.7298 6.49676 12.5867 6.4375 12.4375 6.4375H6.25C6.10082 6.4375 5.95774 6.49676 5.85225 6.60225C5.74676 6.70774 5.6875 6.85082 5.6875 7C5.6875 7.14918 5.74676 7.29226 5.85225 7.39775C5.95774 7.50324 6.10082 7.5625 6.25 7.5625ZM8.6875 12.4375H6.25C6.10082 12.4375 5.95774 12.4968 5.85225 12.6023C5.74676 12.7077 5.6875 12.8508 5.6875 13C5.6875 13.1492 5.74676 13.2923 5.85225 13.3977C5.95774 13.5032 6.10082 13.5625 6.25 13.5625H8.6875C8.83668 13.5625 8.97976 13.5032 9.08525 13.3977C9.19074 13.2923 9.25 13.1492 9.25 13C9.25 12.8508 9.19074 12.7077 9.08525 12.6023C8.97976 12.4968 8.83668 12.4375 8.6875 12.4375ZM14.898 11.477C14.8457 11.4246 14.7836 11.383 14.7152 11.3546C14.6469 11.3262 14.5736 11.3116 14.4995 11.3116C14.4255 11.3116 14.3522 11.3262 14.2838 11.3546C14.2154 11.383 14.1534 11.4246 14.1011 11.477L13.1875 12.3906V9.25C13.1875 9.10082 13.1282 8.95774 13.0227 8.85225C12.9173 8.74676 12.7742 8.6875 12.625 8.6875C12.4758 8.6875 12.3327 8.74676 12.2273 8.85225C12.1218 8.95774 12.0625 9.10082 12.0625 9.25V12.3906L11.148 11.4756C11.0423 11.37 10.899 11.3106 10.7495 11.3106C10.6001 11.3106 10.4568 11.37 10.3511 11.4756C10.2454 11.5813 10.1861 11.7246 10.1861 11.8741C10.1861 12.0235 10.2454 12.1668 10.3511 12.2725L12.2261 14.1475C12.2784 14.1999 12.3404 14.2415 12.4088 14.2699C12.4772 14.2983 12.5505 14.3129 12.6245 14.3129C12.6986 14.3129 12.7719 14.2983 12.8402 14.2699C12.9086 14.2415 12.9707 14.1999 13.023 14.1475L14.898 12.2725C15.0035 12.167 15.0627 12.0239 15.0627 11.8748C15.0627 11.7256 15.0035 11.5825 14.898 11.477Z" fill="black"/>
</svg>
