<svg width="20" height="21" viewBox="0 0 20 21" fill="none" xmlns="http://www.w3.org/2000/svg">
<path d="M19.2006 5.61315L15.0119 1.42347C14.8378 1.24928 14.631 1.1111 14.4035 1.01682C14.176 0.922547 13.9321 0.874023 13.6858 0.874023C13.4395 0.874023 13.1956 0.922547 12.9681 1.01682C12.7405 1.1111 12.5338 1.24928 12.3597 1.42347L0.799383 12.9847C0.624635 13.1583 0.486091 13.3649 0.391785 13.5924C0.29748 13.82 0.249289 14.064 0.250008 14.3103V18.5C0.250008 18.9973 0.447552 19.4742 0.799183 19.8259C1.15081 20.1775 1.62773 20.375 2.12501 20.375H6.31469C6.56101 20.3757 6.80501 20.3275 7.03256 20.2332C7.26011 20.1389 7.46668 20.0004 7.64032 19.8257L19.2006 8.2644C19.5521 7.91279 19.7496 7.43596 19.7496 6.93878C19.7496 6.4416 19.5521 5.96477 19.2006 5.61315ZM6.15626 18.125H2.50001V14.4688L10.375 6.59378L14.0313 10.25L6.15626 18.125ZM15.625 8.65628L11.9688 5.00003L13.6881 3.28065L17.3444 6.9369L15.625 8.65628Z" fill="black"/>
</svg>
