<svg width="20" height="20" viewBox="0 0 20 20" fill="none" xmlns="http://www.w3.org/2000/svg">
<path d="M19.043 4.81413L14.6866 0.457022C14.5417 0.31213 14.3697 0.197194 14.1805 0.118777C13.9912 0.0403609 13.7883 0 13.5834 0C13.3785 0 13.1756 0.0403609 12.9863 0.118777C12.797 0.197194 12.625 0.31213 12.4802 0.457022L0.457288 12.4803C0.311797 12.6246 0.196447 12.7964 0.117944 12.9857C0.039442 13.175 -0.000646861 13.378 7.89267e-06 13.5829V17.9401C7.89267e-06 18.3538 0.164366 18.7506 0.456927 19.0431C0.749487 19.3356 1.14628 19.5 1.56003 19.5H5.91735C6.12229 19.5006 6.32532 19.4606 6.51463 19.3821C6.70394 19.3036 6.87575 19.1882 7.02009 19.0427L19.043 7.02047C19.1879 6.87561 19.3028 6.70363 19.3812 6.51435C19.4596 6.32506 19.5 6.12218 19.5 5.9173C19.5 5.71242 19.4596 5.50954 19.3812 5.32025C19.3028 5.13097 19.1879 4.95899 19.043 4.81413ZM15.6002 8.25672L11.2429 3.90059L13.5829 1.56068L17.9402 5.91681L15.6002 8.25672Z" fill="#3D5AFE"/>
</svg>
