<svg width="22" height="20" viewBox="0 0 22 20" fill="none" xmlns="http://www.w3.org/2000/svg">
<path d="M22 6.04641C22.0017 6.83969 21.855 7.62545 21.5684 8.35824C21.2818 9.09103 20.8611 9.75631 20.3305 10.3156L11.5607 19.7515C11.4876 19.8302 11.4004 19.8927 11.3043 19.9354C11.2082 19.978 11.1051 20 11.0009 20C10.8967 20 10.7936 19.978 10.6975 19.9354C10.6013 19.8927 10.5142 19.8302 10.4411 19.7515L1.67129 10.3156C0.602101 9.18333 0.000921911 7.64711 1.05943e-06 6.04488C-0.000919792 4.44266 0.598493 2.90567 1.66638 1.77203C2.73426 0.638396 4.18314 0.000977507 5.69427 1.12335e-06C7.20541 -0.000975261 8.65502 0.634571 9.7242 1.76683L11.0009 3.03196L12.2864 1.76266C13.0843 0.920892 14.0995 0.348632 15.2038 0.118124C16.3082 -0.112384 17.4522 0.00919535 18.4915 0.467512C19.5307 0.925829 20.4186 1.70034 21.0431 2.69326C21.6675 3.68618 22.0005 4.853 22 6.04641Z" fill="#3D5AFE"/>
</svg>
