<svg width="19" height="18" viewBox="0 0 19 18" fill="none" xmlns="http://www.w3.org/2000/svg">
<path d="M16.875 0H1.875C1.47718 0 1.09564 0.158035 0.81434 0.43934C0.533035 0.720644 0.375 1.10218 0.375 1.5V16.5C0.375 16.8978 0.533035 17.2794 0.81434 17.5607C1.09564 17.842 1.47718 18 1.875 18H16.875C17.2728 18 17.6544 17.842 17.9357 17.5607C18.217 17.2794 18.375 16.8978 18.375 16.5V1.5C18.375 1.10218 18.217 0.720644 17.9357 0.43934C17.6544 0.158035 17.2728 0 16.875 0ZM15.375 14.25H3.375C3.17609 14.25 2.98532 14.171 2.84467 14.0303C2.70402 13.8897 2.625 13.6989 2.625 13.5C2.625 13.3011 2.70402 13.1103 2.84467 12.9697C2.98532 12.829 3.17609 12.75 3.375 12.75H15.375C15.5739 12.75 15.7647 12.829 15.9053 12.9697C16.046 13.1103 16.125 13.3011 16.125 13.5C16.125 13.6989 16.046 13.8897 15.9053 14.0303C15.7647 14.171 15.5739 14.25 15.375 14.25ZM15.375 9.75H3.375C3.17609 9.75 2.98532 9.67098 2.84467 9.53033C2.70402 9.38968 2.625 9.19891 2.625 9C2.625 8.80109 2.70402 8.61032 2.84467 8.46967C2.98532 8.32902 3.17609 8.25 3.375 8.25H15.375C15.5739 8.25 15.7647 8.32902 15.9053 8.46967C16.046 8.61032 16.125 8.80109 16.125 9C16.125 9.19891 16.046 9.38968 15.9053 9.53033C15.7647 9.67098 15.5739 9.75 15.375 9.75ZM15.375 5.25H3.375C3.17609 5.25 2.98532 5.17098 2.84467 5.03033C2.70402 4.88968 2.625 4.69891 2.625 4.5C2.625 4.30109 2.70402 4.11032 2.84467 3.96967C2.98532 3.82902 3.17609 3.75 3.375 3.75H15.375C15.5739 3.75 15.7647 3.82902 15.9053 3.96967C16.046 4.11032 16.125 4.30109 16.125 4.5C16.125 4.69891 16.046 4.88968 15.9053 5.03033C15.7647 5.17098 15.5739 5.25 15.375 5.25Z" fill="#3D5AFE"/>
</svg>
