<svg width="23" height="20" viewBox="0 0 23 20" fill="none" xmlns="http://www.w3.org/2000/svg">
<path d="M20.403 1.82238C19.3024 0.665343 17.8123 0.0145325 16.2581 0.0120984C14.704 0.00966428 13.212 0.655804 12.1082 1.80939L11.1301 2.76674L10.152 1.80939C9.04852 0.648799 7.55297 -0.00205661 5.99436 4.88223e-06C4.43576 0.00206638 2.94177 0.656877 1.84105 1.82038C0.740328 2.98389 0.123049 4.56079 0.125005 6.20418C0.12696 7.84757 0.747989 9.42282 1.85147 10.5834L10.3198 19.6423C10.4256 19.7556 10.5517 19.8455 10.6908 19.907C10.83 19.9684 10.9793 20 11.1301 20C11.2809 20 11.4302 19.9684 11.5693 19.907C11.7085 19.8455 11.8346 19.7556 11.9404 19.6423L20.403 10.5894C20.9489 10.014 21.382 9.33091 21.6775 8.57903C21.9729 7.82715 22.125 7.02126 22.125 6.2074C22.125 5.39353 21.9729 4.58764 21.6775 3.83576C21.382 3.08388 20.9489 2.40075 20.403 1.82538V1.82238ZM18.7918 8.89657L11.1301 17.089L3.46552 8.88957C2.79242 8.17691 2.41494 7.2118 2.41593 6.20603C2.41692 5.20026 2.79629 4.23598 3.47079 3.52479C4.14529 2.8136 5.05982 2.41359 6.01371 2.41255C6.96759 2.41151 7.88291 2.80951 8.55881 3.51923C8.56828 3.52922 8.57776 3.53921 8.58819 3.54821L10.3548 5.28303C10.5653 5.48983 10.8424 5.60481 11.1301 5.60481C11.4178 5.60481 11.6948 5.48983 11.9054 5.28303L13.672 3.54821C13.6824 3.53921 13.6919 3.52922 13.7014 3.51923C14.0362 3.167 14.4336 2.88777 14.8708 2.69747C15.3081 2.50717 15.7765 2.40953 16.2495 2.41014C16.7225 2.41074 17.1908 2.50957 17.6276 2.70098C18.0643 2.8924 18.4611 3.17264 18.7951 3.52572C19.1292 3.8788 19.394 4.2978 19.5745 4.7588C19.755 5.2198 19.8476 5.71376 19.847 6.21249C19.8464 6.71122 19.7527 7.20495 19.5712 7.66548C19.3896 8.12601 19.1238 8.54434 18.789 8.89657H18.7918Z" fill="black"/>
</svg>
