<svg width="21" height="20" viewBox="0 0 21 20" fill="none" xmlns="http://www.w3.org/2000/svg">
<path d="M20.7435 18.2399C19.474 15.9302 17.4916 14.1306 15.1155 13.1307C16.2971 12.212 17.1699 10.9313 17.6103 9.46989C18.0507 8.00848 18.0363 6.44047 17.5693 4.98799C17.1022 3.5355 16.2061 2.27217 15.0079 1.37695C13.8096 0.48173 12.3701 0 10.893 0C9.41603 0 7.97645 0.48173 6.77823 1.37695C5.58001 2.27217 4.68389 3.5355 4.21682 4.98799C3.74974 6.44047 3.73539 8.00848 4.17579 9.46989C4.61619 10.9313 5.48901 12.212 6.67063 13.1307C4.29452 14.1306 2.31213 15.9302 1.04259 18.2399C0.963925 18.371 0.911495 18.5172 0.888417 18.6697C0.865339 18.8223 0.872084 18.9781 0.908252 19.1279C0.94442 19.2776 1.00927 19.4184 1.09895 19.5416C1.18863 19.6649 1.30131 19.7683 1.43029 19.8455C1.55927 19.9228 1.70191 19.9723 1.84974 19.9913C1.99757 20.0102 2.14757 19.9982 2.29081 19.9559C2.43406 19.9135 2.56764 19.8418 2.6836 19.7449C2.79956 19.6479 2.89554 19.5278 2.96583 19.3917C4.64368 16.3855 7.60678 14.5925 10.893 14.5925C14.1793 14.5925 17.1424 16.3864 18.8203 19.3917C18.9726 19.6456 19.2142 19.8282 19.494 19.9008C19.7739 19.9734 20.0699 19.9303 20.3197 19.7808C20.5695 19.6312 20.7533 19.3868 20.8324 19.0992C20.9115 18.8117 20.8796 18.5035 20.7435 18.2399ZM6.07801 7.29769C6.07801 6.31053 6.36041 5.34553 6.88949 4.52474C7.41857 3.70394 8.17058 3.06421 9.05041 2.68643C9.93024 2.30866 10.8984 2.20982 11.8324 2.40241C12.7664 2.59499 13.6244 3.07036 14.2978 3.76839C14.9712 4.46642 15.4298 5.35576 15.6156 6.32396C15.8014 7.29215 15.706 8.29571 15.3416 9.20773C14.9771 10.1198 14.36 10.8993 13.5681 11.4477C12.7763 11.9961 11.8454 12.2889 10.893 12.2889C9.61647 12.2874 8.3926 11.761 7.48992 10.8253C6.58725 9.88961 6.07948 8.62097 6.07801 7.29769Z" fill="black"/>
</svg>
